<svg id="svg" version="1.1" xmlns="http://www.w3.org/2000/svg" xmlns:xlink="http://www.w3.org/1999/xlink" width="400" height="400" viewBox="0, 0, 400,400"><g id="svgg"><path id="path0" d="M69.440 58.234 C 62.036 60.036,55.570 65.918,52.688 73.472 L 51.800 75.800 51.690 122.897 C 51.569 175.027,51.458 172.556,54.161 177.922 C 59.375 188.277,70.725 199.882,90.200 214.771 C 113.653 232.702,114.187 232.752,110.431 216.644 C 105.818 196.858,105.748 193.965,109.837 191.820 C 111.352 191.025,112.216 190.992,138.200 190.744 C 171.166 190.428,168.466 191.108,168.983 183.000 C 169.911 168.450,178.540 155.329,190.478 150.313 C 196.993 147.576,197.762 147.483,216.133 147.230 L 232.867 147.000 234.033 145.694 L 235.200 144.387 235.200 111.413 C 235.200 89.177,235.058 77.749,234.764 76.320 C 233.180 68.619,227.268 61.956,219.248 58.831 L 216.600 57.800 144.200 57.730 C 82.484 57.670,71.452 57.745,69.440 58.234 M139.952 74.443 C 142.709 75.404,142.577 73.727,142.810 110.600 C 143.044 147.803,142.905 146.105,145.967 149.167 C 148.027 151.227,150.017 151.715,157.419 151.975 C 166.197 152.283,166.801 152.718,166.799 158.726 C 166.795 164.988,165.904 165.382,152.400 165.082 C 138.474 164.772,134.019 163.242,129.989 157.383 C 126.039 151.642,125.897 150.376,125.631 118.400 C 125.348 84.352,126.138 87.224,117.040 87.177 C 109.641 87.140,108.308 86.185,108.274 80.893 C 108.250 77.050,108.884 75.301,110.568 74.568 C 112.176 73.868,137.988 73.759,139.952 74.443 " stroke="none" fill="#f3a363" fill-rule="evenodd"></path><path id="path1" d="M67.835 39.943 C 67.719 40.131,66.699 40.395,65.569 40.529 C 64.440 40.663,63.309 40.938,63.058 41.140 C 62.806 41.342,62.031 41.629,61.335 41.778 C 56.468 42.818,46.504 49.801,42.800 54.768 C 42.250 55.505,41.350 56.669,40.800 57.354 C 40.250 58.039,39.354 59.455,38.808 60.500 C 38.263 61.545,37.692 62.400,37.540 62.400 C 37.388 62.400,37.138 62.985,36.986 63.700 C 36.833 64.415,36.569 65.180,36.400 65.400 C 36.231 65.620,35.961 66.430,35.800 67.200 C 35.639 67.970,35.371 68.780,35.203 69.000 C 35.036 69.220,34.774 70.432,34.621 71.694 C 34.469 72.955,34.177 74.091,33.972 74.217 C 33.746 74.357,33.600 93.531,33.600 123.084 C 33.600 173.317,33.680 176.095,35.210 178.883 C 35.416 179.258,35.705 180.316,35.852 181.235 C 36.101 182.791,37.466 185.820,38.540 187.200 C 38.797 187.530,39.359 188.520,39.789 189.400 C 40.219 190.280,41.072 191.656,41.685 192.458 C 42.298 193.259,42.800 194.072,42.800 194.264 C 42.800 194.457,43.610 195.540,44.600 196.671 C 45.590 197.803,46.400 198.969,46.400 199.262 C 46.400 199.874,65.850 219.200,66.466 219.200 C 66.689 219.200,68.267 220.460,69.973 222.000 C 71.678 223.540,73.206 224.800,73.368 224.800 C 73.531 224.800,74.698 225.700,75.963 226.800 C 77.227 227.900,78.399 228.800,78.567 228.800 C 78.735 228.800,79.821 229.610,80.979 230.600 C 82.138 231.590,83.215 232.400,83.371 232.400 C 83.528 232.400,84.510 233.120,85.554 234.000 C 86.598 234.880,87.600 235.600,87.783 235.600 C 87.965 235.600,89.062 236.410,90.221 237.400 C 91.379 238.390,92.453 239.200,92.606 239.200 C 92.759 239.200,93.567 239.740,94.400 240.400 C 95.233 241.060,96.051 241.600,96.216 241.600 C 96.382 241.600,97.286 242.230,98.226 243.000 C 99.166 243.770,100.058 244.400,100.210 244.400 C 100.361 244.400,101.167 244.940,102.000 245.600 C 102.833 246.260,103.643 246.800,103.800 246.800 C 103.957 246.800,104.767 247.340,105.600 248.000 C 106.433 248.660,107.243 249.200,107.400 249.200 C 107.557 249.200,108.367 249.740,109.200 250.400 C 110.033 251.060,110.836 251.600,110.984 251.600 C 111.132 251.600,111.843 252.050,112.564 252.600 C 113.286 253.150,114.013 253.600,114.180 253.600 C 114.348 253.600,115.168 254.141,116.003 254.802 C 116.837 255.463,118.082 256.116,118.768 256.254 C 119.455 256.391,120.114 256.660,120.232 256.852 C 120.791 257.756,127.734 257.228,129.937 256.113 C 132.437 254.848,135.028 252.095,135.427 250.279 C 135.580 249.582,135.974 248.601,136.303 248.098 C 137.013 247.015,136.831 241.071,136.065 240.305 C 135.809 240.049,135.599 239.291,135.598 238.620 C 135.596 237.949,135.352 236.933,135.054 236.363 C 134.756 235.792,134.389 234.667,134.238 233.863 C 134.087 233.058,133.792 232.400,133.582 232.400 C 133.372 232.400,133.200 231.984,133.200 231.476 C 133.200 230.969,132.936 230.204,132.613 229.776 C 132.290 229.349,132.019 228.460,132.010 227.800 C 132.002 227.140,131.726 226.084,131.398 225.454 C 131.069 224.824,130.800 223.829,130.800 223.243 C 130.800 222.657,130.555 221.823,130.255 221.389 C 129.955 220.955,129.585 219.749,129.432 218.709 C 129.279 217.669,129.003 216.725,128.818 216.611 C 128.633 216.497,128.355 215.142,128.200 213.600 C 128.045 212.058,127.757 210.697,127.559 210.575 C 125.542 209.328,127.112 209.200,144.385 209.200 L 161.569 209.200 161.685 242.215 C 161.767 265.875,161.926 275.310,162.244 275.515 C 162.489 275.672,162.814 276.651,162.968 277.691 C 163.121 278.731,163.395 279.674,163.578 279.786 C 163.760 279.899,164.024 280.603,164.164 281.350 C 164.477 283.016,167.922 290.000,168.432 290.000 C 168.634 290.000,168.800 290.242,168.800 290.538 C 168.800 290.834,169.160 291.402,169.600 291.800 C 170.040 292.198,170.400 292.691,170.400 292.894 C 170.400 293.378,177.422 300.400,177.906 300.400 C 178.109 300.400,178.602 300.760,179.000 301.200 C 179.398 301.640,179.966 302.000,180.262 302.000 C 180.558 302.000,180.800 302.163,180.800 302.363 C 180.800 302.847,188.676 306.800,189.641 306.800 C 190.059 306.800,190.400 306.959,190.400 307.154 C 190.400 307.349,191.435 307.637,192.700 307.795 C 193.965 307.952,195.128 308.288,195.285 308.541 C 195.497 308.881,207.494 309.030,241.623 309.116 L 287.675 309.232 287.393 311.716 C 287.238 313.082,286.971 314.380,286.800 314.600 C 286.629 314.820,286.363 315.945,286.207 317.100 C 286.052 318.254,285.783 319.287,285.609 319.394 C 285.436 319.502,285.170 320.579,285.019 321.788 C 284.868 322.998,284.587 324.084,284.395 324.203 C 284.203 324.322,283.923 325.269,283.773 326.309 C 283.622 327.349,283.363 328.380,283.196 328.600 C 283.029 328.820,282.759 329.624,282.595 330.387 C 282.286 331.833,282.168 332.138,281.067 334.334 C 280.699 335.067,280.284 336.417,280.145 337.334 C 280.005 338.250,279.690 339.253,279.445 339.561 C 278.669 340.539,278.598 349.334,279.360 349.967 C 279.712 350.259,280.000 350.753,280.000 351.065 C 280.000 352.347,282.745 355.470,284.190 355.833 C 284.745 355.973,285.200 356.239,285.200 356.425 C 285.200 356.611,285.832 356.882,286.604 357.027 C 287.377 357.172,288.107 357.450,288.228 357.645 C 288.511 358.104,293.485 358.110,293.768 357.652 C 293.886 357.460,294.572 357.189,295.292 357.050 C 296.797 356.759,299.200 355.565,299.200 355.109 C 299.200 354.939,299.387 354.800,299.616 354.800 C 299.973 354.800,302.197 353.403,302.800 352.800 C 303.139 352.461,304.541 351.613,305.800 350.986 C 307.642 350.068,308.569 349.448,308.920 348.900 C 309.096 348.625,309.432 348.400,309.667 348.400 C 309.902 348.400,310.709 347.860,311.461 347.200 C 312.213 346.540,313.023 346.000,313.261 346.000 C 313.499 346.000,314.309 345.460,315.061 344.800 C 315.813 344.140,316.623 343.600,316.861 343.600 C 317.099 343.600,317.948 343.054,318.747 342.386 C 320.932 340.561,321.146 340.400,321.399 340.400 C 321.785 340.400,324.176 338.637,324.520 338.100 C 324.696 337.825,325.032 337.600,325.267 337.600 C 325.502 337.600,326.348 337.054,327.147 336.386 C 327.946 335.718,328.863 334.953,329.185 334.686 C 329.798 334.177,330.988 333.436,331.991 332.938 C 332.316 332.776,332.995 332.199,333.499 331.655 C 334.337 330.751,335.244 330.111,336.767 329.347 C 337.079 329.191,338.003 328.374,338.820 327.532 C 339.638 326.689,340.441 326.000,340.605 326.000 C 340.886 326.000,342.878 324.371,345.274 322.182 C 345.865 321.642,346.478 321.200,346.636 321.200 C 346.958 321.200,350.160 318.349,353.852 314.774 C 355.201 313.468,356.467 312.400,356.665 312.400 C 357.121 312.400,361.600 307.894,361.600 307.436 C 361.600 307.248,363.192 305.520,365.138 303.596 C 367.084 301.672,368.801 299.851,368.954 299.549 C 369.617 298.237,370.353 297.074,370.664 296.846 C 371.230 296.432,372.800 294.058,372.800 293.616 C 372.800 293.387,372.948 293.200,373.129 293.200 C 373.310 293.200,373.863 292.390,374.357 291.400 C 374.852 290.410,375.409 289.600,375.596 289.600 C 375.783 289.600,376.055 289.060,376.200 288.400 C 376.345 287.740,376.615 287.200,376.800 287.200 C 376.985 287.200,377.255 286.660,377.400 286.000 C 377.545 285.340,377.815 284.800,378.000 284.800 C 378.185 284.800,378.455 284.260,378.600 283.600 C 378.745 282.940,379.006 282.400,379.181 282.400 C 379.355 282.400,379.619 281.640,379.768 280.712 C 379.916 279.784,380.254 278.890,380.519 278.727 C 381.194 278.309,381.221 171.597,380.546 170.761 C 380.297 170.453,379.959 169.576,379.795 168.813 C 379.524 167.544,379.272 166.915,378.354 165.200 C 378.178 164.870,377.477 163.520,376.797 162.200 C 374.859 158.436,374.531 157.920,372.814 155.926 C 371.926 154.895,371.200 153.912,371.200 153.741 C 371.200 153.306,367.911 150.000,367.478 150.000 C 367.283 150.000,366.287 149.264,365.266 148.365 C 364.244 147.466,362.867 146.472,362.204 146.156 C 361.542 145.839,359.875 144.963,358.500 144.208 C 357.125 143.454,355.368 142.718,354.596 142.573 C 353.823 142.428,353.102 142.165,352.993 141.989 C 352.885 141.814,352.032 141.544,351.098 141.390 C 350.164 141.236,349.147 140.905,348.839 140.655 C 348.430 140.323,335.512 140.146,301.239 140.000 L 254.200 139.800 254.000 108.161 C 253.856 85.364,253.673 76.366,253.345 75.961 C 253.094 75.653,252.761 74.275,252.605 72.899 C 252.449 71.524,252.169 70.305,251.984 70.190 C 251.798 70.075,251.526 69.181,251.380 68.204 C 251.233 67.226,250.863 66.218,250.557 65.964 C 250.250 65.710,250.000 65.252,250.000 64.946 C 250.000 64.640,249.833 64.077,249.629 63.695 C 249.425 63.313,249.152 62.730,249.021 62.400 C 248.891 62.070,248.347 61.080,247.813 60.200 C 247.278 59.320,246.642 58.150,246.399 57.600 C 245.888 56.442,236.203 46.800,235.552 46.800 C 235.312 46.800,234.459 46.300,233.658 45.688 C 232.090 44.492,228.805 42.800,228.051 42.800 C 227.797 42.800,227.277 42.646,226.895 42.459 C 224.172 41.122,223.129 40.778,221.089 40.548 C 219.818 40.405,218.682 40.133,218.565 39.944 C 218.288 39.495,68.113 39.494,67.835 39.943 M178.668 40.700 C 159.126 40.757,127.266 40.757,107.868 40.700 C 88.471 40.643,104.460 40.596,143.400 40.596 C 182.340 40.596,198.211 40.643,178.668 40.700 M241.400 53.200 C 242.483 54.300,243.280 55.200,243.170 55.200 C 243.060 55.200,242.083 54.300,241.000 53.200 C 239.917 52.100,239.120 51.200,239.230 51.200 C 239.340 51.200,240.317 52.100,241.400 53.200 M245.200 57.686 C 245.200 58.249,244.454 57.650,243.944 56.678 C 243.487 55.806,243.490 55.805,244.342 56.562 C 244.814 56.981,245.200 57.487,245.200 57.686 M219.248 58.831 C 227.268 61.956,233.180 68.619,234.764 76.320 C 235.058 77.749,235.200 89.177,235.200 111.413 L 235.200 144.387 234.033 145.694 L 232.867 147.000 216.133 147.230 C 197.762 147.483,196.993 147.576,190.478 150.313 C 178.540 155.329,169.911 168.450,168.983 183.000 C 168.466 191.108,171.166 190.428,138.200 190.744 C 112.216 190.992,111.352 191.025,109.837 191.820 C 105.748 193.965,105.818 196.858,110.431 216.644 C 114.187 232.752,113.653 232.702,90.200 214.771 C 70.725 199.882,59.375 188.277,54.161 177.922 C 51.458 172.556,51.569 175.027,51.690 122.897 L 51.800 75.800 52.688 73.472 C 55.570 65.918,62.036 60.036,69.440 58.234 C 71.452 57.745,82.484 57.670,144.200 57.730 L 216.600 57.800 219.248 58.831 M247.600 61.298 C 247.600 61.521,247.335 61.478,247.000 61.200 C 246.670 60.926,246.400 60.522,246.400 60.302 C 246.400 60.079,246.665 60.122,247.000 60.400 C 247.330 60.674,247.600 61.078,247.600 61.298 M250.368 67.976 C 250.341 68.515,250.307 68.518,250.114 68.000 C 249.992 67.670,249.726 67.040,249.524 66.600 C 249.162 65.813,249.166 65.812,249.778 66.576 C 250.120 67.004,250.386 67.634,250.368 67.976 M252.400 74.890 C 252.400 76.401,252.200 76.249,251.863 74.480 C 251.706 73.655,251.760 73.252,252.006 73.404 C 252.223 73.538,252.400 74.207,252.400 74.890 M110.568 74.568 C 108.884 75.301,108.250 77.050,108.274 80.893 C 108.309 86.197,109.635 87.140,117.113 87.177 C 122.285 87.203,124.137 87.751,124.896 89.481 C 125.261 90.312,125.450 97.759,125.632 118.400 C 125.912 150.368,126.058 151.670,129.989 157.383 C 134.019 163.242,138.474 164.772,152.400 165.082 C 165.904 165.382,166.795 164.988,166.799 158.726 C 166.801 152.666,166.249 152.284,157.018 151.962 C 147.793 151.640,145.724 150.646,143.713 145.573 C 143.070 143.948,142.994 141.026,142.806 110.600 C 142.577 73.725,142.710 75.405,139.952 74.443 C 137.988 73.759,112.176 73.868,110.568 74.568 M252.615 78.662 C 252.235 80.684,251.917 80.060,252.254 77.954 C 252.408 76.990,252.612 76.436,252.707 76.722 C 252.803 77.009,252.761 77.882,252.615 78.662 M320.700 140.700 C 308.435 140.759,288.365 140.759,276.100 140.700 C 263.835 140.641,273.870 140.593,298.400 140.593 C 322.930 140.593,332.965 140.641,320.700 140.700 M342.313 158.003 C 352.154 159.281,360.006 165.759,362.918 175.000 L 363.800 177.800 363.800 224.600 C 363.800 268.850,363.760 271.529,363.067 273.776 C 359.353 285.811,346.569 299.378,320.600 318.847 C 308.035 328.267,305.160 330.035,303.685 329.246 C 302.107 328.401,302.176 327.675,304.965 315.800 C 308.406 301.148,308.883 296.430,307.144 294.220 C 305.107 291.630,309.156 291.821,251.600 291.600 L 199.400 291.400 196.215 290.274 C 188.547 287.564,183.226 282.039,180.543 274.000 C 179.676 271.404,179.156 185.275,179.970 179.123 C 181.467 167.801,189.503 159.730,201.000 158.001 C 203.991 157.551,338.848 157.553,342.313 158.003 M380.800 224.600 C 380.800 252.624,380.665 275.636,380.500 275.738 C 380.335 275.840,380.200 252.828,380.200 224.600 C 380.200 196.372,380.335 173.360,380.500 173.462 C 380.665 173.564,380.800 196.576,380.800 224.600 M261.400 180.654 C 245.997 182.723,236.971 200.812,240.577 222.382 C 243.896 242.228,260.290 251.649,275.407 242.396 C 279.869 239.665,281.023 240.516,280.706 246.304 C 280.104 257.303,270.512 261.406,255.073 257.267 C 247.545 255.249,247.081 255.481,246.864 261.368 C 246.593 268.703,248.586 270.018,261.800 271.218 C 281.970 273.050,293.335 266.639,296.377 251.713 C 297.505 246.178,297.673 186.519,296.568 184.188 C 295.719 182.400,294.373 182.000,289.200 182.000 C 283.983 182.000,282.965 182.327,281.053 184.614 C 279.180 186.855,278.866 186.843,275.200 184.392 C 270.985 181.573,265.540 180.098,261.400 180.654 M273.075 194.844 C 283.795 199.984,283.710 226.816,272.956 232.021 C 263.834 236.437,256.254 227.895,256.253 213.200 C 256.253 198.682,263.831 190.413,273.075 194.844 M58.800 210.693 C 58.800 210.982,58.287 210.494,54.393 206.500 L 50.200 202.200 54.500 206.393 C 56.865 208.699,58.800 210.634,58.800 210.693 M153.100 208.300 C 148.315 208.363,140.485 208.363,135.700 208.300 C 130.915 208.236,134.830 208.184,144.400 208.184 C 153.970 208.184,157.885 208.236,153.100 208.300 M126.676 210.300 C 126.575 210.685,126.493 210.370,126.493 209.600 C 126.493 208.830,126.575 208.515,126.676 208.900 C 126.776 209.285,126.776 209.915,126.676 210.300 M162.498 245.500 C 162.554 259.415,162.465 270.800,162.300 270.800 C 162.135 270.800,162.040 256.805,162.088 239.700 C 162.137 222.595,162.226 211.210,162.286 214.400 C 162.346 217.590,162.442 231.585,162.498 245.500 M64.969 216.365 C 64.862 216.472,64.195 215.958,63.487 215.223 L 62.200 213.887 63.681 215.029 C 64.496 215.657,65.075 216.258,64.969 216.365 M72.400 222.200 C 72.678 222.535,72.721 222.800,72.498 222.800 C 72.278 222.800,71.874 222.530,71.600 222.200 C 71.322 221.865,71.279 221.600,71.502 221.600 C 71.722 221.600,72.126 221.870,72.400 222.200 M78.400 227.000 C 78.678 227.335,78.721 227.600,78.498 227.600 C 78.278 227.600,77.874 227.330,77.600 227.000 C 77.322 226.665,77.279 226.400,77.502 226.400 C 77.722 226.400,78.126 226.670,78.400 227.000 M83.200 230.600 C 83.478 230.935,83.521 231.200,83.298 231.200 C 83.078 231.200,82.674 230.930,82.400 230.600 C 82.122 230.265,82.079 230.000,82.302 230.000 C 82.522 230.000,82.926 230.270,83.200 230.600 M92.400 237.400 C 92.678 237.735,92.721 238.000,92.498 238.000 C 92.278 238.000,91.874 237.730,91.600 237.400 C 91.322 237.065,91.279 236.800,91.502 236.800 C 91.722 236.800,92.126 237.070,92.400 237.400 M100.000 242.600 C 100.278 242.935,100.321 243.200,100.098 243.200 C 99.878 243.200,99.474 242.930,99.200 242.600 C 98.922 242.265,98.879 242.000,99.102 242.000 C 99.322 242.000,99.726 242.270,100.000 242.600 M129.000 255.600 C 128.864 255.820,128.358 255.987,127.876 255.972 C 127.031 255.945,127.029 255.931,127.800 255.600 C 128.901 255.127,129.292 255.127,129.000 255.600 M163.554 275.600 C 163.584 276.133,163.545 276.133,163.200 275.600 C 162.987 275.270,162.827 274.550,162.846 274.000 L 162.880 273.000 163.200 274.000 C 163.376 274.550,163.535 275.270,163.554 275.600 M167.367 286.366 C 167.119 286.614,166.930 286.314,166.633 285.200 L 166.367 284.200 166.951 285.199 C 167.272 285.749,167.459 286.274,167.367 286.366 M177.801 298.802 C 178.225 299.487,177.605 299.237,176.683 298.351 L 175.800 297.501 176.678 297.953 C 177.160 298.201,177.666 298.583,177.801 298.802 M366.800 300.556 C 366.800 300.642,365.810 301.718,364.600 302.947 C 363.390 304.177,362.400 305.057,362.400 304.904 C 362.400 304.643,366.438 300.400,366.686 300.400 C 366.749 300.400,366.800 300.470,366.800 300.556 M288.642 310.103 L 288.684 311.607 288.518 310.205 L 288.352 308.804 246.476 308.699 L 204.600 308.594 246.600 308.597 L 288.600 308.600 288.642 310.103 M354.800 312.552 C 354.800 312.835,351.603 316.000,351.317 316.000 C 351.161 316.000,351.828 315.190,352.800 314.200 C 354.499 312.469,354.800 312.221,354.800 312.552 M349.200 317.800 C 348.683 318.350,348.067 318.799,347.830 318.798 C 347.594 318.797,347.940 318.353,348.600 317.812 C 350.148 316.543,350.385 316.538,349.200 317.800 M279.800 344.963 C 279.800 346.592,279.665 347.841,279.500 347.739 C 278.924 347.382,279.175 341.985,279.767 342.001 C 279.785 342.001,279.800 343.334,279.800 344.963 " stroke="none" fill="#244453" fill-rule="evenodd"></path><path id="path2" d="M107.868 40.700 C 127.266 40.757,159.126 40.757,178.668 40.700 C 198.211 40.643,182.340 40.596,143.400 40.596 C 104.460 40.596,88.471 40.643,107.868 40.700 M241.000 53.200 C 242.083 54.300,243.060 55.200,243.170 55.200 C 243.280 55.200,242.483 54.300,241.400 53.200 C 240.317 52.100,239.340 51.200,239.230 51.200 C 239.120 51.200,239.917 52.100,241.000 53.200 M243.944 56.678 C 244.454 57.650,245.200 58.249,245.200 57.686 C 245.200 57.487,244.814 56.981,244.342 56.562 C 243.490 55.805,243.487 55.806,243.944 56.678 M246.400 60.302 C 246.400 60.522,246.670 60.926,247.000 61.200 C 247.335 61.478,247.600 61.521,247.600 61.298 C 247.600 61.078,247.330 60.674,247.000 60.400 C 246.665 60.122,246.400 60.079,246.400 60.302 M249.524 66.600 C 249.726 67.040,249.992 67.670,250.114 68.000 C 250.307 68.518,250.341 68.515,250.368 67.976 C 250.386 67.634,250.120 67.004,249.778 66.576 C 249.166 65.812,249.162 65.813,249.524 66.600 M251.863 74.480 C 252.200 76.249,252.400 76.401,252.400 74.890 C 252.400 74.207,252.223 73.538,252.006 73.404 C 251.760 73.252,251.706 73.655,251.863 74.480 M252.254 77.954 C 252.100 78.918,252.058 79.791,252.161 79.894 C 252.430 80.163,252.915 77.345,252.707 76.722 C 252.612 76.436,252.408 76.990,252.254 77.954 M276.100 140.700 C 288.365 140.759,308.435 140.759,320.700 140.700 C 332.965 140.641,322.930 140.593,298.400 140.593 C 273.870 140.593,263.835 140.641,276.100 140.700 M201.000 158.001 C 189.503 159.730,181.467 167.801,179.970 179.123 C 179.156 185.275,179.676 271.404,180.543 274.000 C 183.226 282.039,188.547 287.564,196.215 290.274 L 199.400 291.400 251.600 291.600 C 309.156 291.821,305.107 291.630,307.144 294.220 C 308.883 296.430,308.406 301.148,304.965 315.800 C 302.176 327.675,302.107 328.401,303.685 329.246 C 305.160 330.035,308.035 328.267,320.600 318.847 C 346.569 299.378,359.353 285.811,363.067 273.776 C 363.760 271.529,363.800 268.850,363.800 224.600 L 363.800 177.800 362.918 175.000 C 360.006 165.759,352.154 159.281,342.313 158.003 C 338.848 157.553,203.991 157.551,201.000 158.001 M380.200 224.600 C 380.200 252.828,380.335 275.840,380.500 275.738 C 380.665 275.636,380.800 252.624,380.800 224.600 C 380.800 196.576,380.665 173.564,380.500 173.462 C 380.335 173.360,380.200 196.372,380.200 224.600 M269.800 181.640 C 271.120 182.050,273.550 183.288,275.200 184.392 C 278.866 186.843,279.180 186.855,281.053 184.614 C 284.068 181.007,294.917 180.710,296.568 184.188 C 297.673 186.519,297.505 246.178,296.377 251.713 C 293.335 266.639,281.970 273.050,261.800 271.218 C 248.586 270.018,246.593 268.703,246.864 261.368 C 247.081 255.481,247.545 255.249,255.073 257.267 C 270.512 261.406,280.104 257.303,280.706 246.304 C 281.023 240.516,279.869 239.665,275.407 242.396 C 260.290 251.649,243.896 242.228,240.577 222.382 C 236.190 196.141,250.818 175.747,269.800 181.640 M265.269 194.342 C 253.480 198.524,252.771 226.851,264.326 232.079 C 273.487 236.225,280.971 227.713,280.925 213.200 C 280.882 199.461,274.047 191.229,265.269 194.342 M54.393 206.500 C 56.699 208.865,58.634 210.800,58.693 210.800 C 58.982 210.800,58.494 210.287,54.500 206.393 L 50.200 202.200 54.393 206.500 M135.700 208.300 C 140.485 208.363,148.315 208.363,153.100 208.300 C 157.885 208.236,153.970 208.184,144.400 208.184 C 134.830 208.184,130.915 208.236,135.700 208.300 M126.493 209.600 C 126.493 210.370,126.575 210.685,126.676 210.300 C 126.776 209.915,126.776 209.285,126.676 208.900 C 126.575 208.515,126.493 208.830,126.493 209.600 M162.088 239.700 C 162.040 256.805,162.135 270.800,162.300 270.800 C 162.569 270.800,162.559 228.870,162.286 214.400 C 162.226 211.210,162.137 222.595,162.088 239.700 M63.487 215.223 C 64.195 215.958,64.862 216.472,64.969 216.365 C 65.075 216.258,64.496 215.657,63.681 215.029 L 62.200 213.887 63.487 215.223 M71.600 222.200 C 71.874 222.530,72.278 222.800,72.498 222.800 C 72.721 222.800,72.678 222.535,72.400 222.200 C 72.126 221.870,71.722 221.600,71.502 221.600 C 71.279 221.600,71.322 221.865,71.600 222.200 M77.600 227.000 C 77.874 227.330,78.278 227.600,78.498 227.600 C 78.721 227.600,78.678 227.335,78.400 227.000 C 78.126 226.670,77.722 226.400,77.502 226.400 C 77.279 226.400,77.322 226.665,77.600 227.000 M82.400 230.600 C 82.674 230.930,83.078 231.200,83.298 231.200 C 83.521 231.200,83.478 230.935,83.200 230.600 C 82.926 230.270,82.522 230.000,82.302 230.000 C 82.079 230.000,82.122 230.265,82.400 230.600 M91.600 237.400 C 91.874 237.730,92.278 238.000,92.498 238.000 C 92.721 238.000,92.678 237.735,92.400 237.400 C 92.126 237.070,91.722 236.800,91.502 236.800 C 91.279 236.800,91.322 237.065,91.600 237.400 M99.200 242.600 C 99.474 242.930,99.878 243.200,100.098 243.200 C 100.321 243.200,100.278 242.935,100.000 242.600 C 99.726 242.270,99.322 242.000,99.102 242.000 C 98.879 242.000,98.922 242.265,99.200 242.600 M127.800 255.600 C 127.029 255.931,127.031 255.945,127.876 255.972 C 128.358 255.987,128.864 255.820,129.000 255.600 C 129.292 255.127,128.901 255.127,127.800 255.600 M162.846 274.000 C 162.827 274.550,162.987 275.270,163.200 275.600 C 163.694 276.364,163.694 275.542,163.200 274.000 L 162.880 273.000 162.846 274.000 M166.633 285.200 C 166.930 286.314,167.119 286.614,167.367 286.366 C 167.459 286.274,167.272 285.749,166.951 285.199 L 166.367 284.200 166.633 285.200 M176.683 298.351 C 177.605 299.237,178.225 299.487,177.801 298.802 C 177.666 298.583,177.160 298.201,176.678 297.953 L 175.800 297.501 176.683 298.351 M364.486 302.513 C 363.339 303.674,362.400 304.751,362.400 304.904 C 362.400 305.057,363.390 304.177,364.600 302.947 C 366.597 300.918,367.021 300.400,366.686 300.400 C 366.624 300.400,365.634 301.351,364.486 302.513 M246.476 308.699 L 288.352 308.804 288.518 310.205 L 288.684 311.607 288.642 310.103 L 288.600 308.600 246.600 308.597 L 204.600 308.594 246.476 308.699 M352.800 314.200 C 351.828 315.190,351.161 316.000,351.317 316.000 C 351.603 316.000,354.800 312.835,354.800 312.552 C 354.800 312.221,354.499 312.469,352.800 314.200 M348.600 317.812 C 347.940 318.353,347.594 318.797,347.830 318.798 C 348.067 318.799,348.683 318.350,349.200 317.800 C 350.385 316.538,350.148 316.543,348.600 317.812 M279.467 342.267 C 279.099 342.634,279.129 347.509,279.500 347.739 C 279.665 347.841,279.800 346.592,279.800 344.963 C 279.800 343.334,279.785 342.001,279.767 342.001 C 279.748 342.000,279.613 342.120,279.467 342.267 " stroke="none" fill="#2c9b8b" fill-rule="evenodd"></path></g></svg>